<svg width="198" height="35" viewBox="0 0 198 35" fill="none" xmlns="http://www.w3.org/2000/svg">
<path fill-rule="evenodd" clip-rule="evenodd" d="M29.906 0.639032C30.7581 1.49107 30.7581 2.87251 29.906 3.72455L24.9034 8.72716L29.906 13.7298C30.7581 14.5818 30.7581 15.9632 29.906 16.8153L23.3607 23.3607C22.5086 24.2127 21.1272 24.2127 20.2751 23.3607C19.4231 22.5086 19.4231 21.1272 20.2751 20.2751L25.2778 15.2725L21.8179 11.8127L10.2699 23.3607C9.41788 24.2127 8.03644 24.2127 7.1844 23.3607L0.639032 16.8153C-0.213011 15.9632 -0.213011 14.5818 0.639032 13.7298L7.1844 7.1844C8.03644 6.33236 9.41788 6.33236 10.2699 7.1844C11.122 8.03644 11.122 9.41788 10.2699 10.2699L5.26731 15.2725L8.72716 18.7324L26.8205 0.639032C27.6726 -0.213011 29.054 -0.213011 29.906 0.639032Z" fill="#2A2747"/>
<path fill-rule="evenodd" clip-rule="evenodd" d="M29.9059 0.639031C30.7579 1.49107 30.7579 2.87251 29.9059 3.72455L24.9033 8.72716L29.9059 13.7298C30.7579 14.5818 30.7579 15.9632 29.9059 16.8153L23.3605 23.3607C22.5085 24.2127 21.127 24.2127 20.275 23.3607C19.4229 22.5086 19.4229 21.1272 20.275 20.2751L25.2776 15.2725L20.275 10.2699C19.4229 9.41788 19.4229 8.03644 20.275 7.1844L26.8204 0.639031C27.6724 -0.213011 29.0538 -0.213011 29.9059 0.639031Z" fill="url(#paint0_linear)"/>
<path fill-rule="evenodd" clip-rule="evenodd" d="M10.2699 7.18469C11.122 8.03673 11.122 9.41816 10.2699 10.2702L5.26731 15.2728L10.2699 20.2754C11.122 21.1275 11.122 22.5089 10.2699 23.3609C9.41788 24.213 8.03645 24.213 7.1844 23.3609L0.639032 16.8156C-0.213011 15.9635 -0.213011 14.5821 0.639032 13.7301L7.1844 7.18469C8.03645 6.33264 9.41788 6.33264 10.2699 7.18469Z" fill="url(#paint1_linear)"/>
<path d="M40.4116 21.0686C39.3467 21.0686 38.3772 20.8188 37.503 20.3193C36.6288 19.8197 35.9419 19.1328 35.4424 18.2586C34.9494 17.3844 34.7029 16.4116 34.7029 15.3402C34.7029 14.2688 34.9494 13.2993 35.4424 12.4317C35.9419 11.5575 36.6288 10.8739 37.503 10.3809C38.3772 9.88134 39.35 9.63157 40.4214 9.63157C41.7623 9.63157 42.9224 10.0095 43.9018 10.7654C44.8812 11.5213 45.5221 12.527 45.8244 13.7824H43.606C43.3168 13.158 42.8896 12.6683 42.3243 12.3134C41.759 11.9518 41.1214 11.7711 40.4116 11.7711C39.4322 11.7711 38.6138 12.1129 37.9565 12.7965C37.3058 13.4801 36.9805 14.328 36.9805 15.3402C36.9805 16.3525 37.3091 17.2037 37.9664 17.8938C38.6237 18.584 39.4388 18.9291 40.4116 18.9291C41.128 18.9291 41.7623 18.745 42.3144 18.3769C42.8731 18.0089 43.3004 17.4929 43.5962 16.829H45.854C45.5516 18.1042 44.9042 19.1296 43.9117 19.9052C42.9192 20.6808 41.7525 21.0686 40.4116 21.0686Z" fill="#2A2747"/>
<path d="M56.0684 20.3291C55.1811 20.8221 54.1886 21.0686 53.0909 21.0686C51.9932 21.0686 51.0007 20.8221 50.1133 20.3291C49.226 19.8296 48.5292 19.146 48.0231 18.2784C47.517 17.4041 47.2639 16.4281 47.2639 15.3501C47.2639 14.2655 47.517 13.2894 48.0231 12.4218C48.5292 11.5476 49.226 10.864 50.1133 10.371C51.0007 9.87805 51.9932 9.63157 53.0909 9.63157C54.1886 9.63157 55.1811 9.87805 56.0684 10.371C56.9558 10.864 57.6525 11.5476 58.1587 12.4218C58.6648 13.296 58.9178 14.2721 58.9178 15.3501C58.9178 16.4281 58.6648 17.4041 58.1587 18.2784C57.6525 19.146 56.9558 19.8296 56.0684 20.3291ZM50.5373 17.9234C51.2077 18.5939 52.0589 18.9291 53.0909 18.9291C54.1228 18.9291 54.9708 18.5939 55.6346 17.9234C56.3051 17.253 56.6403 16.3952 56.6403 15.3501C56.6403 14.305 56.3051 13.4472 55.6346 12.7767C54.9708 12.1063 54.1228 11.7711 53.0909 11.7711C52.0589 11.7711 51.2077 12.1063 50.5373 12.7767C49.8734 13.4472 49.5415 14.305 49.5415 15.3501C49.5415 16.3952 49.8734 17.253 50.5373 17.9234Z" fill="#2A2747"/>
<path d="M69.7732 5.99341H72.0113V20.8024H70.3154L70.0295 19.5699C68.9844 20.5756 67.7027 21.0784 66.1843 21.0784C64.5476 21.0784 63.1936 20.5329 62.1222 19.4418C61.0508 18.3507 60.5151 16.9868 60.5151 15.3501C60.5151 13.7068 61.0475 12.3429 62.1123 11.2584C63.1837 10.1738 64.541 9.63157 66.1843 9.63157C67.5646 9.63157 68.7609 10.0555 69.7732 10.9034V5.99341ZM63.8082 17.9135C64.4786 18.5906 65.3265 18.9291 66.3519 18.9291C67.3773 18.9291 68.2285 18.5873 68.9055 17.9037C69.5891 17.2201 69.9309 16.3689 69.9309 15.3501C69.9309 14.3313 69.5891 13.4801 68.9055 12.7965C68.2285 12.1129 67.3773 11.7711 66.3519 11.7711C65.3265 11.7711 64.4786 12.1129 63.8082 12.7965C63.1377 13.4735 62.8025 14.3247 62.8025 15.3501C62.8025 16.3755 63.1377 17.23 63.8082 17.9135Z" fill="#2A2747"/>
<path d="M85.5779 15.3797C85.5779 15.59 85.5615 15.8332 85.5286 16.1093H76.6748C76.8128 16.99 77.1809 17.6868 77.7791 18.1995C78.3772 18.7122 79.1232 18.9685 80.0172 18.9685C80.6613 18.9685 81.2365 18.8272 81.7426 18.5446C82.2553 18.2619 82.6562 17.8708 82.9454 17.3713H85.3117C84.8779 18.5216 84.191 19.4253 83.2511 20.0826C82.3111 20.7399 81.2332 21.0686 80.0172 21.0686C78.4265 21.0686 77.0955 20.523 76.0241 19.4319C74.9527 18.3342 74.417 16.9736 74.417 15.3501C74.417 14.2787 74.6602 13.3059 75.1466 12.4317C75.633 11.5575 76.3034 10.8739 77.1579 10.3809C78.0124 9.88134 78.9655 9.63157 80.0172 9.63157C81.1017 9.63157 82.0712 9.8912 82.9257 10.4105C83.7802 10.9232 84.4342 11.6166 84.8878 12.4908C85.3479 13.3585 85.5779 14.3214 85.5779 15.3797ZM80.0172 11.6528C79.1824 11.6528 78.4725 11.8894 77.8875 12.3626C77.3025 12.8359 76.918 13.4801 76.734 14.2951H83.33C83.1262 13.4669 82.7285 12.8195 82.137 12.3528C81.552 11.8861 80.8454 11.6528 80.0172 11.6528Z" fill="#2A2747"/>
<path d="M92.3613 21.0211C91.119 21.0211 90.1232 20.7286 89.3739 20.1436C88.6245 19.552 88.2137 18.7436 88.1414 17.7182H89.1076C89.18 18.4741 89.5053 19.0624 90.0837 19.483C90.6687 19.8971 91.4378 20.1042 92.3909 20.1042C93.3439 20.1042 94.1097 19.9037 94.6881 19.5027C95.2666 19.0952 95.5558 18.5497 95.5558 17.8661C95.5558 17.6623 95.5328 17.475 95.4867 17.3041C95.4407 17.1266 95.3651 16.9721 95.26 16.8407C95.1614 16.7026 95.0562 16.581 94.9445 16.4759C94.8393 16.3707 94.6947 16.2787 94.5107 16.1998C94.3332 16.1144 94.1721 16.0421 94.0275 15.9829C93.8829 15.9237 93.6923 15.8679 93.4557 15.8153C93.2191 15.7627 93.0186 15.7233 92.8543 15.697C92.6965 15.6641 92.4862 15.6247 92.2233 15.5787C91.9472 15.5327 91.7369 15.4965 91.5922 15.4702C91.4476 15.4439 91.2439 15.4012 90.981 15.342C90.718 15.2829 90.5143 15.2303 90.3697 15.1843C90.2316 15.1317 90.0542 15.0627 89.8373 14.9772C89.6269 14.8852 89.4593 14.7932 89.3344 14.7012C89.2161 14.6026 89.0846 14.4843 88.94 14.3462C88.7954 14.2082 88.687 14.0603 88.6147 13.9026C88.5424 13.7382 88.4799 13.5509 88.4273 13.3406C88.3748 13.1302 88.3485 12.9035 88.3485 12.6603C88.3485 11.7729 88.7133 11.0564 89.4429 10.5109C90.1725 9.95875 91.1256 9.68268 92.3021 9.68268C93.4853 9.68268 94.4285 9.96532 95.1318 10.5306C95.8417 11.0893 96.2196 11.8551 96.2656 12.8279H95.3191C95.2731 12.118 94.9839 11.5658 94.4515 11.1715C93.9191 10.7771 93.1961 10.5799 92.2824 10.5799C91.3885 10.5799 90.6687 10.7705 90.1232 11.1517C89.5842 11.5264 89.3147 12.0227 89.3147 12.6405C89.3147 12.8772 89.3476 13.0908 89.4133 13.2814C89.4856 13.4654 89.6039 13.6265 89.7682 13.7645C89.9326 13.896 90.0903 14.0044 90.2415 14.0899C90.3927 14.1753 90.6162 14.2575 90.9119 14.3364C91.2077 14.4087 91.4476 14.4645 91.6317 14.504C91.8157 14.5368 92.0918 14.5829 92.4599 14.642C92.9726 14.7275 93.3637 14.7998 93.6332 14.8589C93.9092 14.9115 94.2609 15.0167 94.6881 15.1744C95.1219 15.3322 95.4506 15.5129 95.6741 15.7167C95.8976 15.9205 96.098 16.2031 96.2755 16.5646C96.453 16.9261 96.5417 17.3468 96.5417 17.8266C96.5417 18.7929 96.1572 19.5685 95.3882 20.1535C94.6257 20.7319 93.6167 21.0211 92.3613 21.0211Z" fill="#2A2747"/>
<path d="M103.355 19.8774H104.548V20.8042H103.246C102.181 20.8042 101.34 20.4953 100.722 19.8774C100.111 19.2595 99.8052 18.4116 99.8052 17.3337V10.8067H97.9911V10.5799L100.604 7.97699H100.801V9.89959H104.459V10.8067H100.801V17.3041C100.801 18.1257 101.021 18.76 101.462 19.207C101.909 19.6539 102.54 19.8774 103.355 19.8774Z" fill="#2A2747"/>
<path d="M114.88 19.7197C114.039 20.5873 112.905 21.0211 111.479 21.0211C110.053 21.0211 108.915 20.5873 108.067 19.7197C107.226 18.8454 106.805 17.6787 106.805 16.2195V9.89959H107.801V16.0815C107.801 17.3107 108.13 18.2835 108.787 18.9999C109.451 19.7098 110.348 20.0647 111.479 20.0647C112.616 20.0647 113.513 19.7098 114.171 18.9999C114.828 18.2835 115.156 17.3107 115.156 16.0815V9.89959H116.152V16.2195C116.152 17.6787 115.728 18.8454 114.88 19.7197Z" fill="#2A2747"/>
<path d="M129.039 6.03467H130.025V20.8042H129.236L129.088 18.5267C128.595 19.3023 127.941 19.9136 127.126 20.3605C126.311 20.8009 125.4 21.0211 124.395 21.0211C123.337 21.0211 122.38 20.7746 121.526 20.2816C120.678 19.7887 120.014 19.1117 119.534 18.2506C119.054 17.383 118.814 16.4167 118.814 15.3519C118.814 14.2871 119.054 13.3241 119.534 12.4631C120.014 11.5954 120.678 10.9151 121.526 10.4221C122.38 9.92917 123.337 9.68268 124.395 9.68268C125.381 9.68268 126.275 9.89631 127.077 10.3236C127.885 10.7508 128.539 11.3424 129.039 12.0983V6.03467ZM124.464 20.0647C125.798 20.0647 126.902 19.6178 127.777 18.7238C128.657 17.8299 129.098 16.7059 129.098 15.3519C129.098 13.9979 128.657 12.8739 127.777 11.9799C126.902 11.086 125.798 10.6391 124.464 10.6391C123.136 10.6391 122.029 11.0893 121.141 11.9898C120.26 12.8837 119.82 14.0044 119.82 15.3519C119.82 16.6928 120.26 17.8135 121.141 18.714C122.029 19.6145 123.136 20.0647 124.464 20.0647Z" fill="#2A2747"/>
<path d="M133.702 7.65163V6.25158H134.944V7.65163H133.702ZM133.83 20.8042V9.89959H134.816V20.8042H133.83Z" fill="#2A2747"/>
<path d="M143.394 21.0211C142.323 21.0211 141.35 20.7779 140.476 20.2915C139.608 19.7985 138.924 19.1215 138.425 18.2604C137.932 17.3928 137.685 16.4233 137.685 15.3519C137.685 13.7218 138.228 12.371 139.312 11.2996C140.403 10.2217 141.764 9.68268 143.394 9.68268C145.024 9.68268 146.382 10.2217 147.466 11.2996C148.557 12.3776 149.103 13.7284 149.103 15.3519C149.103 16.9754 148.557 18.3262 147.466 19.4042C146.382 20.4821 145.024 21.0211 143.394 21.0211ZM143.394 20.0647C144.748 20.0647 145.869 19.6178 146.756 18.7238C147.65 17.8299 148.097 16.7059 148.097 15.3519C148.097 13.9979 147.65 12.8739 146.756 11.9799C145.869 11.086 144.748 10.6391 143.394 10.6391C142.04 10.6391 140.916 11.086 140.022 11.9799C139.135 12.8673 138.691 13.9913 138.691 15.3519C138.691 16.7059 139.138 17.8299 140.032 18.7238C140.926 19.6178 142.047 20.0647 143.394 20.0647Z" fill="#2A2747"/>
<path d="M108 26.0904H109.49C109.874 26.0904 110.173 26.1821 110.387 26.3656C110.603 26.5491 110.712 26.8018 110.712 27.1237C110.712 27.4457 110.603 27.7001 110.387 27.887C110.17 28.0705 109.871 28.1622 109.49 28.1622H108.43V29.7875H108V26.0904ZM109.453 27.8091C109.729 27.8091 109.937 27.7503 110.077 27.6326C110.217 27.5149 110.287 27.3453 110.287 27.1237C110.287 26.9022 110.217 26.7343 110.077 26.62C109.937 26.5023 109.729 26.4435 109.453 26.4435H108.43V27.8091H109.453Z" fill="black"/>
<path d="M113.599 29.8291C113.253 29.8291 112.952 29.7529 112.697 29.6006C112.442 29.4483 112.244 29.2302 112.104 28.9463C111.968 28.659 111.9 28.3232 111.9 27.939C111.9 27.5512 111.968 27.2154 112.104 26.9316C112.241 26.6477 112.437 26.4296 112.692 26.2773C112.947 26.125 113.25 26.0488 113.599 26.0488C113.949 26.0488 114.252 26.125 114.507 26.2773C114.762 26.4296 114.958 26.6477 115.094 26.9316C115.231 27.2154 115.299 27.5495 115.299 27.9338C115.299 28.3215 115.229 28.6573 115.089 28.9411C114.953 29.225 114.757 29.4448 114.502 29.6006C114.246 29.7529 113.946 29.8291 113.599 29.8291ZM113.599 29.4656C113.994 29.4656 114.302 29.3323 114.523 29.0658C114.743 28.7992 114.853 28.4219 114.853 27.9338C114.853 27.4457 114.743 27.07 114.523 26.807C114.306 26.5439 113.998 26.4123 113.599 26.4123C113.201 26.4123 112.891 26.5456 112.671 26.8121C112.451 27.0752 112.341 27.4491 112.341 27.9338C112.341 28.4219 112.451 28.7992 112.671 29.0658C112.891 29.3323 113.201 29.4656 113.599 29.4656Z" fill="black"/>
<path d="M121.854 26.0904L120.548 29.7875H120.181L119.116 26.7602L118.046 29.7875H117.684L116.373 26.0904H116.814L117.873 29.18L118.959 26.0904L119.289 26.0956L120.359 29.1904L121.43 26.0904H121.854Z" fill="black"/>
<path d="M123.152 26.0904H125.512V26.4435H123.576V27.7312H125.407V28.0895H123.576V29.4344H125.512V29.7875H123.152V26.0904Z" fill="black"/>
<path d="M129.823 29.7875H129.366L128.905 28.5569C128.849 28.4046 128.77 28.3024 128.669 28.2505C128.571 28.1986 128.431 28.1726 128.249 28.1726H127.316V29.7875H126.891V26.0904H128.375C128.777 26.0904 129.085 26.1786 129.298 26.3552C129.515 26.5317 129.623 26.7862 129.623 27.1185C129.623 27.3608 129.559 27.5651 129.429 27.7312C129.303 27.8939 129.12 28.0099 128.879 28.0792C128.987 28.0965 129.08 28.1432 129.157 28.2194C129.234 28.2921 129.298 28.3976 129.351 28.5361L129.823 29.7875ZM128.338 27.8195C128.912 27.8195 129.199 27.5876 129.199 27.1237C129.199 26.8952 129.129 26.7256 128.989 26.6148C128.849 26.5006 128.632 26.4435 128.338 26.4435H127.316V27.8195H128.338Z" fill="black"/>
<path d="M131.183 26.0904H133.543V26.4435H131.608V27.7312H133.439V28.0895H131.608V29.4344H133.543V29.7875H131.183V26.0904Z" fill="black"/>
<path d="M134.922 26.0904H136.176C136.774 26.0904 137.235 26.2513 137.561 26.5733C137.889 26.8918 138.054 27.3453 138.054 27.9338C138.054 28.5257 137.889 28.9827 137.561 29.3046C137.235 29.6266 136.774 29.7875 136.176 29.7875H134.922V26.0904ZM136.15 29.424C136.632 29.424 136.994 29.2994 137.235 29.0502C137.48 28.8009 137.603 28.4288 137.603 27.9338C137.603 26.9472 137.118 26.4539 136.15 26.4539H135.352V29.424H136.15Z" fill="black"/>
<path d="M143.634 27.887C143.847 27.9459 144.013 28.0532 144.132 28.209C144.251 28.3613 144.31 28.5517 144.31 28.7802C144.31 29.1021 144.202 29.3514 143.985 29.5279C143.768 29.701 143.462 29.7875 143.067 29.7875H141.515V26.0904H143.015C143.396 26.0904 143.691 26.1752 143.901 26.3448C144.114 26.511 144.221 26.7481 144.221 27.0562C144.221 27.2535 144.169 27.4249 144.064 27.5703C143.962 27.7122 143.819 27.8178 143.634 27.887ZM141.94 27.7312H142.947C143.226 27.7312 143.438 27.6759 143.581 27.5651C143.725 27.4543 143.796 27.2916 143.796 27.077C143.796 26.6546 143.513 26.4435 142.947 26.4435H141.94V27.7312ZM143.03 29.4344C143.324 29.4344 143.539 29.3808 143.676 29.2735C143.816 29.1627 143.885 28.9948 143.885 28.7698C143.885 28.3163 143.6 28.0895 143.03 28.0895H141.94V29.4344H143.03Z" fill="black"/>
<path d="M147.012 28.2921V29.7875H146.581V28.2869L145.113 26.0904H145.616L146.802 27.9078L147.987 26.0904H148.48L147.012 28.2921Z" fill="black"/>
<path d="M167.584 23.6308C167.23 23.4355 166.957 23.1598 166.766 22.8036C166.575 22.4474 166.48 22.0354 166.48 21.5675C166.48 21.1041 166.575 20.6952 166.766 20.3412C166.957 19.9872 167.23 19.7125 167.584 19.5171C167.938 19.3217 168.353 19.2244 168.83 19.2244C169.13 19.2244 169.421 19.2694 169.702 19.3595C169.983 19.4496 170.209 19.572 170.381 19.7265L170.014 20.5826C169.641 20.3123 169.254 20.1769 168.855 20.1769C168.486 20.1769 168.203 20.2939 168.005 20.5277C167.808 20.7618 167.709 21.1082 167.709 21.5675C167.709 22.0309 167.808 22.3808 168.005 22.6168C168.203 22.8528 168.486 22.9708 168.855 22.9708C169.254 22.9708 169.641 22.8356 170.014 22.5651L170.381 23.4212C170.209 23.5757 169.983 23.6981 169.702 23.7882C169.421 23.8783 169.13 23.9233 168.83 23.9233C168.353 23.9239 167.938 23.8262 167.584 23.6308Z" fill="#404041"/>
<path d="M172.255 23.6375C171.907 23.4466 171.64 23.1728 171.453 22.8166C171.266 22.4604 171.173 22.0439 171.173 21.5675C171.173 21.0911 171.267 20.6768 171.456 20.325C171.645 19.9733 171.912 19.7017 172.258 19.5108C172.603 19.3198 173.01 19.2244 173.478 19.2244C173.946 19.2244 174.352 19.3198 174.698 19.5108C175.043 19.7017 175.308 19.9733 175.493 20.325C175.677 20.6771 175.77 21.0911 175.77 21.5675C175.77 22.0439 175.677 22.4604 175.493 22.8166C175.308 23.1728 175.043 23.4466 174.698 23.6375C174.352 23.8285 173.946 23.9239 173.478 23.9239C173.01 23.9239 172.602 23.8285 172.255 23.6375ZM174.286 22.6364C174.481 22.3919 174.579 22.0357 174.579 21.5678C174.579 21.1044 174.481 20.7513 174.286 20.5087C174.09 20.2664 173.821 20.1449 173.478 20.1449C173.134 20.1449 172.866 20.2651 172.673 20.5055C172.48 20.746 172.384 21.0999 172.384 21.5678C172.384 22.0401 172.48 22.3973 172.673 22.6396C172.866 22.8823 173.134 23.0034 173.478 23.0034C173.821 23.0031 174.09 22.881 174.286 22.6364Z" fill="#404041"/>
<path d="M176.864 19.2825H178.737C179.244 19.2825 179.68 19.3738 180.047 19.5562C180.414 19.7386 180.695 20.0016 180.891 20.3448C181.086 20.6883 181.184 21.0959 181.184 21.5679C181.184 22.0443 181.087 22.4554 180.894 22.8008C180.701 23.1462 180.421 23.4101 180.054 23.5925C179.687 23.7749 179.248 23.8663 178.737 23.8663H176.864V19.2825ZM178.654 22.9007C179.1 22.9007 179.434 22.7903 179.655 22.5692C179.876 22.3482 179.987 22.0145 179.987 21.5682C179.987 20.6883 179.542 20.2483 178.654 20.2483H178.074V22.9007H178.654Z" fill="#404041"/>
<path d="M182.278 19.2825H183.489V23.8663H182.278V19.2825Z" fill="#404041"/>
<path d="M188.8 19.2825V23.8663H187.905L185.825 21.2653V23.8663H184.699V19.2825H185.581L187.66 21.8705V19.2825H188.8Z" fill="#404041"/>
<path d="M194.085 21.2779V23.5763C193.841 23.6879 193.567 23.7739 193.264 23.8338C192.962 23.8938 192.651 23.9239 192.334 23.9239C191.836 23.9239 191.404 23.8294 191.037 23.6407C190.67 23.4519 190.387 23.1804 190.19 22.8264C189.992 22.4724 189.894 22.0528 189.894 21.5678C189.894 21.0958 189.992 20.6825 190.19 20.3285C190.387 19.9745 190.666 19.7021 191.027 19.5108C191.387 19.3198 191.808 19.2244 192.289 19.2244C192.619 19.2244 192.931 19.2672 193.225 19.3531C193.519 19.4391 193.759 19.5571 193.943 19.7071L193.563 20.5632C193.353 20.4259 193.15 20.3263 192.955 20.2638C192.76 20.2016 192.551 20.1706 192.327 20.1706C191.919 20.1706 191.616 20.2854 191.416 20.515C191.217 20.7447 191.117 21.0955 191.117 21.5675C191.117 22.0569 191.221 22.4195 191.429 22.6555C191.637 22.8915 191.958 23.0095 192.391 23.0095C192.593 23.0095 192.795 22.9879 192.997 22.9451V22.0953H192.198V21.2776H194.085V21.2779Z" fill="#404041"/>
<path d="M171.053 25.7649V30.683H170.093L167.861 27.8923V30.683H166.653V25.7649H167.599L169.83 28.5416V25.7649H171.053Z" fill="#404041"/>
<path d="M172.496 25.7649H173.795V30.683H172.496V25.7649Z" fill="#404041"/>
<path d="M179.632 25.7649V30.683H178.672L176.441 27.8923V30.683H175.232V25.7649H176.178L178.409 28.5416V25.7649H179.632Z" fill="#404041"/>
<path d="M180.647 30.8835C180.878 30.9063 181.046 30.918 181.152 30.918C181.359 30.918 181.497 30.8765 181.566 30.7937C181.635 30.7109 181.67 30.552 181.67 30.317V25.7649H182.969V30.2963C182.969 30.8765 182.851 31.3025 182.616 31.5743C182.381 31.8458 181.978 31.9819 181.407 31.9819C181.181 31.9819 180.928 31.9613 180.647 31.9198V30.8835Z" fill="#404041"/>
<path d="M187.727 29.6682H185.544L185.109 30.6835H183.811L186.111 25.7654H187.133L189.441 30.6835H188.163L187.727 29.6682ZM187.306 28.694L186.636 27.1398L185.966 28.694H187.306Z" fill="#404041"/>
<path d="M190.891 30.6005C190.532 30.5037 190.239 30.3724 190.014 30.2068L190.421 29.2882C190.661 29.4402 190.915 29.5566 191.185 29.6372C191.454 29.7177 191.724 29.758 191.996 29.758C192.272 29.758 192.484 29.7199 192.632 29.6441C192.779 29.568 192.853 29.4611 192.853 29.3228C192.853 29.1985 192.786 29.096 192.652 29.0154C192.519 28.9349 192.268 28.8556 191.899 28.7772C191.434 28.6852 191.073 28.5711 190.815 28.4353C190.557 28.2995 190.376 28.1394 190.273 27.9554C190.169 27.7711 190.117 27.5478 190.117 27.2855C190.117 26.986 190.202 26.7155 190.373 26.4738C190.543 26.2321 190.783 26.0433 191.091 25.9073C191.4 25.7715 191.752 25.7036 192.148 25.7036C192.503 25.7036 192.847 25.7531 193.181 25.8521C193.515 25.951 193.776 26.0811 193.965 26.2422L193.564 27.1608C193.348 27.0089 193.12 26.8925 192.881 26.8119C192.641 26.7313 192.402 26.691 192.162 26.691C191.927 26.691 191.738 26.7361 191.596 26.8258C191.453 26.9156 191.381 27.0365 191.381 27.1884C191.381 27.2712 191.407 27.3403 191.458 27.3955C191.508 27.4507 191.603 27.505 191.741 27.5579C191.879 27.6109 192.086 27.6674 192.363 27.7273C192.809 27.8241 193.16 27.9405 193.416 28.0762C193.672 28.212 193.852 28.3709 193.958 28.553C194.064 28.735 194.117 28.9526 194.117 29.2058C194.117 29.6847 193.93 30.0612 193.557 30.3353C193.184 30.6094 192.659 30.7464 191.983 30.7464C191.614 30.7454 191.25 30.6969 190.891 30.6005Z" fill="#404041"/>
<path d="M158.033 22.2705H164.177V19.3824H158.043C157.064 19.3247 156.085 19.5842 155.25 20.1025C154.53 20.5919 153.983 21.2831 153.695 22.0894C153.378 23.0397 153.205 24.0189 153.234 24.9977C153.205 25.9769 153.378 26.9847 153.695 27.9061C153.983 28.7124 154.53 29.4036 155.25 29.893C156.085 30.4113 157.064 30.6705 158.043 30.6131H164.177V27.4046H158.033C157.254 27.4046 156.706 27.174 156.36 26.7414C156.014 26.3087 155.812 25.6743 155.812 24.8376C155.812 23.1358 156.533 22.2705 158.033 22.2705Z" fill="url(#paint2_linear)"/>
<path fill-rule="evenodd" clip-rule="evenodd" d="M156.96 24.3899L159.84 24.9399C159.84 24.9402 157.728 27.1355 156.96 24.3899Z" fill="#404041"/>
<path fill-rule="evenodd" clip-rule="evenodd" d="M163.713 24.3994L160.921 24.9786C160.921 24.9789 163.339 27.1511 163.713 24.3994Z" fill="#404041"/>
<defs>
<linearGradient id="paint0_linear" x1="19.636" y1="13.6665" x2="30.5466" y2="13.7354" gradientUnits="userSpaceOnUse">
<stop stop-color="#F6430F"/>
<stop offset="1" stop-color="#EE9F15"/>
</linearGradient>
<linearGradient id="paint1_linear" x1="1.13764e-07" y1="16.4849" x2="10.9102" y2="16.5796" gradientUnits="userSpaceOnUse">
<stop stop-color="#F6430F"/>
<stop offset="1" stop-color="#EE9F15"/>
</linearGradient>
<linearGradient id="paint2_linear" x1="153.231" y1="24.9981" x2="164.177" y2="24.9981" gradientUnits="userSpaceOnUse">
<stop stop-color="#ED722F"/>
<stop offset="0.2694" stop-color="#ED8225"/>
<stop offset="0.7101" stop-color="#EE9719"/>
<stop offset="1" stop-color="#EE9F14"/>
</linearGradient>
</defs>
</svg>
